<?xml version="1.0" standalone="no"?>
<!DOCTYPE svg PUBLIC "-//W3C//DTD SVG 20010904//EN"
 "http://www.w3.org/TR/2001/REC-SVG-20010904/DTD/svg10.dtd">
<svg version="1.0" xmlns="http://www.w3.org/2000/svg"
 width="275.000000pt" height="275.000000pt" viewBox="0 0 275.000000 275.000000"
 preserveAspectRatio="xMidYMid meet">
<metadata>
Created by potrace 1.11, written by Peter Selinger 2001-2013
</metadata>
<g transform="translate(0.000000,275.000000) scale(0.100000,-0.100000)"
fill="#000000" stroke="none">
<path d="M213 2537 c-10 -16 -9 -20 54 -277 30 -124 56 -235 59 -247 2 -12 34
-142 70 -290 36 -147 68 -279 70 -292 7 -35 122 -511 134 -553 8 -30 17 -39
43 -46 18 -5 201 -42 407 -82 206 -41 377 -76 379 -77 3 -2 -14 -23 -37 -46
-23 -24 -42 -47 -42 -52 0 -6 83 -93 185 -195 l185 -185 415 415 c228 228 415
417 415 421 0 8 -358 363 -371 368 -6 2 -31 -16 -55 -40 -31 -30 -45 -38 -48
-28 -5 12 -28 123 -39 189 -3 14 -21 106 -41 205 -20 99 -38 189 -40 200 -36
186 -43 212 -60 218 -8 3 -205 52 -438 107 -425 103 -752 182 -993 240 -246
59 -244 59 -252 47z m285 -107 c92 -22 277 -67 412 -100 135 -33 313 -76 395
-95 306 -74 521 -125 543 -130 12 -3 22 -9 22 -13 0 -4 38 -190 83 -414 l83
-408 -278 -277 -277 -277 -148 29 c-81 16 -152 30 -158 31 -5 1 -92 18 -192
38 -100 20 -192 39 -205 41 -13 3 -34 7 -48 10 -14 3 -36 7 -49 10 -13 2 -25
6 -27 8 -3 3 -129 513 -138 561 -7 35 -105 437 -122 500 -9 32 -18 69 -20 81
-2 12 -24 106 -49 209 -25 104 -44 190 -42 192 1 2 177 -171 390 -384 l387
-387 -26 -51 c-47 -96 -28 -219 47 -294 159 -158 435 -42 432 181 -3 189 -198
309 -366 225 l-52 -26 -390 390 c-214 215 -386 390 -382 390 5 0 84 -18 175
-40z m878 -775 c115 -88 115 -254 0 -333 -133 -91 -321 10 -317 170 3 162 192
259 317 163z m727 -1007 l-383 -383 -155 155 -155 155 382 382 383 383 155
-155 155 -155 -382 -382z"/>
</g>
</svg>
