<svg version="1" xmlns="http://www.w3.org/2000/svg" width="682.667" height="682.667" viewBox="0 0 512.000000 512.000000"><path d="M0 256v256h512V0H0v256zM194.6 73.5C271 92 338 108.2 343.4 109.5c10.5 2.6 14.4 5.1 16.5 10.4.5 1.4 6.5 30.3 13.2 64.1 6.7 33.8 12.4 61.7 12.6 61.9.1.2 1.1-.3 2.2-1.3 3-2.7 8-3.7 12.5-2.5 3.5.9 8.9 5.9 36.4 33.2 35.6 35.5 36.6 36.9 34.3 45-1.1 3.6-10.6 13.6-72.9 76.1-53.3 53.3-72.8 72.3-76 73.8-3.2 1.5-5.4 1.8-8.5 1.3-3.9-.6-6.7-3.2-36.6-32.8-34.3-34.2-36.8-37.3-35.5-44.2.3-1.9 1.5-4.7 2.6-6.1 1.1-1.4 1.9-2.6 1.7-2.8-.2-.2-28.3-5.8-62.4-12.6-34.1-6.7-63.5-13-65.4-13.9-1.9-1-4.3-3.3-5.2-5.2-3-5.8-73.1-297.9-72.4-301.6 1-5.7 8.1-12.1 13.6-12.3.8 0 64.1 15.1 140.5 33.5z"/><path d="M155.5 135c37.5 37.5 53.4 52.8 54.5 52.4 14.9-6.5 26.1-7.8 38.8-4.6 4.6 1.2 10.9 3.6 14 5.4 20 11.3 31.3 35.5 26.9 57.3-3.7 18-14 31.6-29.9 39.4-45.4 22.2-93.4-23.1-74.3-70.2l2.5-6.2-52.8-52.8c-29-29-52.8-52.3-53-51.8-.3.8 54.6 229.2 55.2 229.8.2.2 30.4 6.4 67.2 13.7l66.9 13.5 44.7-44.7 44.7-44.7-13.4-66.9c-7.4-36.8-13.6-67-13.8-67.2-.4-.4-228.5-55.4-229.9-55.4-.7 0 22.6 23.9 51.7 53z"/><path d="M230 210.9c-13.2 4.3-21.3 16.1-19.5 28.4 3.2 20.9 28.7 29.4 43.6 14.5 12-12.1 8.4-32.9-7.1-40.8-4.4-2.2-13.3-3.3-17-2.1zM336.5 337l-60 60 19.8 19.7 19.7 19.8 60-60 60-60-19.8-19.8-19.7-19.7-60 60z"/></svg>